<svg width="129" height="46" viewBox="0 0 129 46" fill="none" xmlns="http://www.w3.org/2000/svg">
<path d="M42.4694 44.93L43.0744 44.49C43.3311 44.1967 43.6244 43.885 43.9544 43.555C44.3211 43.2617 44.5777 42.9867 44.7244 42.73C44.9077 42.4367 44.9994 42.1433 44.9994 41.85C44.9994 41.52 44.8711 41.2083 44.6144 40.915C44.3577 40.6583 44.1377 40.4017 43.9544 40.145C43.8811 40.0717 43.8261 39.98 43.7894 39.87C43.7527 39.76 43.6977 39.65 43.6244 39.54L42.5244 39.265L42.6894 39.045H42.6344C42.4144 39.045 42.2127 38.935 42.0294 38.715C41.8827 38.495 41.7177 38.44 41.5344 38.55C41.5344 38.44 41.5711 38.3667 41.6444 38.33C41.2044 38.2933 40.7827 38.2933 40.3794 38.33C40.0128 38.3667 39.6277 38.385 39.2244 38.385C39.0411 38.385 38.8394 38.3667 38.6194 38.33C38.4361 38.33 38.2528 38.3117 38.0694 38.275C37.8127 38.2017 37.5377 38.0367 37.2444 37.78C36.9877 37.4867 36.7861 37.2667 36.6394 37.12C36.4927 37.1567 36.3461 37.1933 36.1994 37.23C36.0894 37.23 35.9794 37.23 35.8694 37.23C35.3927 37.23 34.9527 37.1567 34.5494 37.01C34.1828 36.8267 33.7794 36.735 33.3394 36.735C32.2394 36.6983 30.8277 36.6983 29.1044 36.735C27.4177 36.7717 25.7311 36.8267 24.0444 36.9C22.3577 36.9733 20.9461 37.0283 19.8094 37.065C19.6627 37.1017 19.5161 37.175 19.3694 37.285C19.2227 37.395 19.0577 37.505 18.8744 37.615C18.1777 38.0917 17.4627 38.5133 16.7294 38.88C15.9961 39.2833 15.2627 39.6683 14.5294 40.035C14.3827 40.1083 14.2177 40.2917 14.0344 40.585C13.8511 40.915 13.6677 41.08 13.4844 41.08C12.7144 41.4467 12.1644 41.7033 11.8344 41.85C11.5411 41.9967 11.3027 42.0883 11.1194 42.125C10.9727 42.1617 10.7344 42.2167 10.4044 42.29C10.1111 42.3633 9.56108 42.4917 8.75441 42.675C8.60775 42.7117 8.46108 42.7117 8.31441 42.675C8.16775 42.675 8.03941 42.6933 7.92941 42.73L6.82941 42.62L6.66441 42.565C6.51775 42.6383 6.35275 42.675 6.16941 42.675C5.83941 42.675 5.47275 42.6383 5.06941 42.565C4.70275 42.4917 4.46441 42.4367 4.35441 42.4L3.91441 42.29V42.345C3.76775 42.345 3.58441 42.2717 3.36441 42.125C3.10775 42.0517 2.85108 41.96 2.59441 41.85C2.33775 41.7767 2.09941 41.6667 1.87941 41.52L1.21941 41.135C1.18275 41.0617 1.12775 40.9517 1.05441 40.805C0.944414 40.695 0.834414 40.5667 0.724414 40.42C0.541081 40.3467 0.449414 40.1817 0.449414 39.925L0.394414 39.87C0.394414 39.54 0.651081 39.2283 1.16441 38.935C1.64108 38.6417 2.24608 38.3483 2.97941 38.055C3.71275 37.7983 4.44608 37.5783 5.17941 37.395C5.94941 37.2117 6.59108 37.065 7.10441 36.955C7.61775 36.845 7.89275 36.8083 7.92941 36.845C8.11275 36.7717 8.46108 36.68 8.97441 36.57C9.52441 36.46 10.1294 36.35 10.7894 36.24C11.4494 36.13 12.0361 36.0383 12.5494 35.965C13.0994 35.855 13.4477 35.7817 13.5944 35.745L17.4994 35.03L20.2494 34.37L21.1844 34.205C21.4777 33.985 21.7711 33.7833 22.0644 33.6C22.3577 33.38 22.5777 33.2517 22.7244 33.215C24.1544 31.9317 25.3094 30.8133 26.1894 29.86C27.1061 28.87 27.9677 27.9167 28.7744 27C29.5811 26.0833 30.5161 25.075 31.5794 23.975L33.3944 22.105C33.5777 21.885 33.6877 21.6467 33.7244 21.39C33.7977 21.0967 33.9627 20.8767 34.2194 20.73C34.2927 20.6567 34.3844 20.5467 34.4944 20.4C34.6044 20.2167 34.6777 20.1067 34.7144 20.07C35.0444 19.7033 35.4844 19.2267 36.0344 18.64C36.5844 18.0533 37.0427 17.5767 37.4094 17.21C37.8861 16.7333 38.2344 16.33 38.4544 16C38.7111 15.6333 38.9677 15.285 39.2244 14.955C39.4811 14.5883 39.8478 14.2033 40.3244 13.8C40.4344 13.69 40.7277 13.3417 41.2044 12.755C41.7177 12.1317 42.2127 11.5267 42.6894 10.94H42.1394C41.9561 10.94 41.7544 10.94 41.5344 10.94C41.3144 10.94 41.1127 10.9217 40.9294 10.885C40.8928 10.885 40.8194 10.885 40.7094 10.885C40.6361 10.885 40.5994 10.8667 40.5994 10.83C40.0861 10.8667 39.7561 10.885 39.6094 10.885C39.4627 10.8483 39.3711 10.8117 39.3344 10.775C39.2977 10.7383 39.1877 10.7017 39.0044 10.665C38.8577 10.6283 38.5094 10.61 37.9594 10.61L37.1894 10.17H37.1344C37.0977 10.0967 36.9878 10.0417 36.8044 10.005C36.6211 9.96833 36.4744 9.93166 36.3644 9.895L35.9794 10.17C35.9427 10.2067 35.6861 10.2067 35.2094 10.17C34.7694 10.1333 34.3477 10.0783 33.9444 10.005C33.5411 9.93167 33.3577 9.84 33.3944 9.73C33.3211 9.69333 33.0827 9.65666 32.6794 9.62C32.3127 9.58333 31.9461 9.54667 31.5794 9.51C31.2127 9.43667 31.0477 9.36333 31.0844 9.29H31.0294C30.9561 9.36333 30.9194 9.4 30.9194 9.4C30.7727 9.4 30.6627 9.32666 30.5894 9.18C30.5527 9.03333 30.4794 8.94167 30.3694 8.905L30.3144 8.96C30.3511 8.99667 30.3511 9.07 30.3144 9.18L30.0394 9.015L30.0944 8.905H30.1494L29.9844 8.795L29.8744 8.96L29.7644 8.795C29.4711 8.795 29.2694 8.74 29.1594 8.63C29.1227 8.66666 29.0861 8.685 29.0494 8.685H28.9944C28.9211 8.685 28.8661 8.64833 28.8294 8.575C28.7927 8.465 28.7377 8.39166 28.6644 8.355C28.5911 8.50167 28.4994 8.575 28.3894 8.575L28.4994 8.3H28.4444L28.3344 8.465L28.1694 8.3L28.0594 8.41H27.8944L28.0044 8.19L27.9494 8.245C27.8761 8.31833 27.7661 8.355 27.6194 8.355C27.3994 8.355 27.2344 8.33667 27.1244 8.3L27.1794 8.135C27.1061 8.17166 27.0511 8.19 27.0144 8.19V8.135L26.9044 8.3C26.7577 8.26333 26.5744 8.245 26.3544 8.245H26.2444C26.1344 8.245 26.0061 8.22667 25.8594 8.19C25.7494 8.15333 25.6394 8.135 25.5294 8.135C25.4194 8.135 25.3094 8.135 25.1994 8.135C25.1261 8.09833 25.0527 8.08 24.9794 8.08C24.9061 8.15333 24.8327 8.19 24.7594 8.19C24.7227 8.19 24.6677 8.19 24.5944 8.19C24.5577 8.15333 24.5211 8.135 24.4844 8.135L24.3744 8.245H24.3194C24.2827 8.245 24.1177 8.28167 23.8244 8.355C23.5677 8.39166 23.4211 8.44666 23.3844 8.52C23.3477 8.52 23.2927 8.53833 23.2194 8.575C23.1461 8.575 23.0727 8.575 22.9994 8.575C22.8161 8.75833 22.4677 8.905 21.9544 9.015C21.4411 9.08833 21.1477 9.19833 21.0744 9.345C20.0111 9.71166 19.0577 10.3167 18.2144 11.16C17.3711 11.9667 16.6744 12.8467 16.1244 13.8C15.6111 14.7167 15.2444 15.505 15.0244 16.165C14.7677 16.9717 14.5661 17.375 14.4194 17.375C14.3461 17.375 14.3094 17.3017 14.3094 17.155C14.3094 17.045 14.3277 16.8983 14.3644 16.715C14.4377 16.5317 14.4927 16.33 14.5294 16.11C14.6394 15.8167 14.7127 15.56 14.7494 15.34C14.7861 15.12 14.8044 14.9367 14.8044 14.79C14.8044 14.6067 14.7861 14.46 14.7494 14.35C14.7494 14.2033 14.7494 14.075 14.7494 13.965C14.7494 13.8183 14.7861 13.6533 14.8594 13.47C14.9694 13.2867 15.1894 13.0117 15.5194 12.645C15.7394 12.3883 15.9594 12.1683 16.1794 11.985C16.4361 11.765 16.6927 11.545 16.9494 11.325L17.9394 10.5C18.1227 10.39 18.4161 10.17 18.8194 9.84C19.2227 9.47333 19.6261 9.125 20.0294 8.795C20.4694 8.465 20.7811 8.31833 20.9644 8.355L21.0194 8.3C21.1294 8.19 21.5327 8.00666 22.2294 7.75C22.9261 7.49333 23.7144 7.21833 24.5944 6.925C25.5111 6.63167 26.3177 6.39333 27.0144 6.21C27.7477 5.99 28.1694 5.88 28.2794 5.88C28.3894 5.77 28.5544 5.75167 28.7744 5.825C28.9211 5.75167 29.0127 5.715 29.0494 5.715C29.2327 5.715 29.3611 5.73333 29.4344 5.77C29.5444 5.69667 29.6544 5.67833 29.7644 5.715C29.8744 5.75167 29.9661 5.78833 30.0394 5.825C30.0761 5.75167 30.1311 5.715 30.2044 5.715C30.2411 5.715 30.2777 5.73333 30.3144 5.77C30.3511 5.77 30.3877 5.77 30.4244 5.77C30.4611 5.73333 30.5161 5.715 30.5894 5.715C30.6627 5.715 30.7361 5.73333 30.8094 5.77C30.8827 5.80666 30.9561 5.825 31.0294 5.825L31.0844 5.715C31.3777 5.78833 31.6711 5.86167 31.9644 5.935C32.2577 6.00833 32.5327 6.045 32.7894 6.045C32.8627 6.045 32.9544 6.06333 33.0644 6.1C33.1744 6.1 33.2111 6.13666 33.1744 6.21L33.2844 6.155C33.3577 6.19167 33.4494 6.22833 33.5594 6.265C33.7061 6.265 33.7794 6.28333 33.7794 6.32H33.8894C34.0361 6.32 34.1461 6.35667 34.2194 6.43C34.3294 6.50333 34.4577 6.55833 34.6044 6.595V6.54L34.7144 6.485C34.8244 6.66833 35.0994 6.76 35.5394 6.76C35.6494 6.76 35.7411 6.68667 35.8144 6.54H36.0344V6.925L36.4744 6.98L36.5294 6.925C36.5294 7.035 36.6577 7.09 36.9144 7.09C37.1344 7.09 37.3727 7.07166 37.6294 7.035C37.9228 6.96167 38.1244 6.925 38.2344 6.925L38.4544 6.705H38.6194L38.5644 6.925L38.9494 6.76C38.9861 6.87 39.0594 6.925 39.1694 6.925C39.2794 6.88833 39.3894 6.87 39.4994 6.87H39.6644V7.09H39.7744L39.8844 6.87C39.9577 6.90667 40.0311 6.96167 40.1044 7.035C40.1777 7.07166 40.2511 7.10833 40.3244 7.145C40.3244 7.035 40.3611 7.01667 40.4344 7.09C40.4711 7.05333 40.5077 7.035 40.5444 7.035C40.6544 7.035 40.5444 7.10833 40.2144 7.255C39.9211 7.365 39.6094 7.49333 39.2794 7.64C38.9494 7.78666 38.8211 7.86 38.8944 7.86L38.9494 7.915L41.2044 7.255L41.4244 6.98C41.6077 7.01667 41.7911 7.05333 41.9744 7.09C42.1577 7.09 42.3411 7.09 42.5244 7.09L40.2144 7.915H40.2694C40.4161 7.915 40.5444 7.89666 40.6544 7.86C40.8744 7.86 41.2411 7.82333 41.7544 7.75C42.3044 7.67666 42.8361 7.62166 43.3494 7.585C43.8994 7.51167 44.2661 7.475 44.4494 7.475C44.7427 7.475 44.8711 7.53 44.8344 7.64C44.8344 7.71333 44.8894 7.75 44.9994 7.75V7.695C45.1461 7.62167 45.1827 7.585 45.1094 7.585C45.0361 7.585 45.0361 7.585 45.1094 7.585C45.2561 7.585 45.6044 7.62167 46.1544 7.695C46.7044 7.73167 47.1444 7.76833 47.4744 7.805C47.5844 7.73167 47.6944 7.71333 47.8044 7.75C47.9511 7.78667 48.0611 7.805 48.1344 7.805C48.2811 7.805 48.4277 7.805 48.5744 7.805C48.7577 7.76833 48.9227 7.73167 49.0694 7.695L49.2894 7.42C49.5094 7.16333 49.7477 7.035 50.0044 7.035C50.2611 7.035 50.4994 7.145 50.7194 7.365C51.4527 7.18166 52.2044 6.96167 52.9744 6.705C53.7444 6.41167 54.4044 6.08167 54.9544 5.715C55.1377 5.56833 55.3211 5.42167 55.5044 5.275C55.6877 5.09167 55.8894 5 56.1094 5C55.7428 5.69667 55.0094 6.39333 53.9094 7.09C52.8461 7.78666 51.7094 8.42833 50.4994 9.015C49.3261 9.565 48.3361 10.005 47.5294 10.335L42.0844 16.165C41.9377 16.3117 41.7544 16.44 41.5344 16.55C41.3144 16.66 41.1494 16.7883 41.0394 16.935L40.7644 17.43L37.5744 20.895C37.0611 21.4817 36.4561 22.1967 35.7594 23.04C35.0627 23.8467 34.4027 24.525 33.7794 25.075C32.8627 25.955 32.1477 26.615 31.6344 27.055C31.1577 27.495 30.7911 27.8617 30.5344 28.155C30.2777 28.4117 30.0394 28.6683 29.8194 28.925C29.5994 29.1817 29.2694 29.5483 28.8294 30.025C28.2794 30.465 27.8761 30.795 27.6194 31.015C27.3994 31.235 27.1977 31.4367 27.0144 31.62C26.8677 31.7667 26.6294 32.0233 26.2994 32.39C26.0794 32.6467 25.7861 32.9217 25.4194 33.215C25.0894 33.4717 24.8327 33.655 24.6494 33.765C25.7127 33.6183 26.9227 33.49 28.2794 33.38C29.6361 33.27 30.6994 33.1967 31.4694 33.16C31.6527 33.1233 32.0744 33.0867 32.7344 33.05C33.3944 33.0133 33.9811 32.995 34.4944 32.995C35.0078 32.995 35.3011 33.0317 35.3744 33.105C35.3011 33.2517 35.2644 33.3617 35.2644 33.435C35.2644 33.5817 35.3377 33.6733 35.4844 33.71C35.6677 33.7467 35.7594 33.765 35.7594 33.765C36.0161 33.8017 36.2911 33.71 36.5844 33.49C36.8777 33.27 37.1527 33.16 37.4094 33.16C38.1427 33.16 38.8761 33.2517 39.6094 33.435C39.9027 33.4717 40.1961 33.5083 40.4894 33.545C40.7827 33.545 41.0027 33.6183 41.1494 33.765C41.4061 33.765 41.8277 33.8383 42.4144 33.985C43.0011 34.1317 43.3494 34.26 43.4594 34.37L45.6594 34.865C45.8061 34.9017 45.9161 34.975 45.9894 35.085C46.0627 35.195 46.1911 35.25 46.3744 35.25L46.7044 36.075L46.8144 36.185C47.1444 36.1483 47.4194 36.3683 47.6394 36.845C47.8594 37.3217 47.9511 37.6517 47.9144 37.835L47.8594 38.22L47.9694 38.165C48.0061 38.2017 48.0244 38.22 48.0244 38.22C48.0244 38.2567 48.0244 38.275 48.0244 38.275C48.0244 38.3483 48.0061 38.4217 47.9694 38.495C47.9327 38.605 47.9144 38.6967 47.9144 38.77C47.9144 38.9533 47.7677 39.2283 47.4744 39.595C47.1811 39.9983 46.8694 40.4017 46.5394 40.805C46.2094 41.2083 45.9711 41.52 45.8244 41.74L45.3294 42.62C45.0727 42.8767 44.7427 43.28 44.3394 43.83C43.9361 44.38 43.5694 44.7467 43.2394 44.93C42.9094 45.1867 42.6527 45.1867 42.4694 44.93ZM5.50941 41.575L6.49941 41.355L6.60941 41.465C6.68275 41.4283 6.77441 41.41 6.88441 41.41C7.03108 41.41 7.17775 41.41 7.32441 41.41C7.65441 41.41 7.81941 41.3733 7.81941 41.3C7.92941 41.3 7.98441 41.3183 7.98441 41.355C9.67108 40.7317 11.3027 40.1633 12.8794 39.65C14.4927 39.1367 16.0511 38.3667 17.5544 37.34L17.7194 37.23C17.6827 37.2667 17.2427 37.285 16.3994 37.285C15.5927 37.2483 14.7677 37.2483 13.9244 37.285C13.7044 37.285 13.1361 37.34 12.2194 37.45C11.3394 37.56 10.2944 37.725 9.08441 37.945C7.91108 38.1283 6.73775 38.3483 5.56441 38.605C4.42775 38.8617 3.47441 39.1367 2.70441 39.43C1.93441 39.76 1.54941 40.09 1.54941 40.42C1.54941 40.5667 1.65941 40.7317 1.87941 40.915C2.28275 41.2083 2.70441 41.355 3.14441 41.355C3.62108 41.3917 4.11608 41.4283 4.62941 41.465C4.81275 41.465 4.95941 41.465 5.06941 41.465C5.21608 41.5017 5.36275 41.5383 5.50941 41.575ZM57.9644 43.115C57.781 43.2617 57.5244 43.335 57.1944 43.335C56.7177 43.335 56.351 43.1517 56.0944 42.785L55.7644 42.07C55.691 41.85 55.581 41.6483 55.4344 41.465C55.3244 41.2817 55.2694 41.0617 55.2694 40.805C55.2694 40.5117 55.306 40.2183 55.3794 39.925C55.4527 39.6683 55.5077 39.4117 55.5444 39.155C55.6544 38.6417 55.8194 38.1283 56.0394 37.615C56.2594 37.065 56.461 36.5517 56.6444 36.075C57.011 35.1583 57.4327 34.2783 57.9094 33.435C58.386 32.555 58.8627 31.675 59.3394 30.795L59.9994 29.64L59.7244 30.025C59.3944 30.5017 59.0827 30.96 58.7894 31.4C58.496 31.84 58.1844 32.28 57.8544 32.72C57.3044 33.4167 56.7177 34.1133 56.0944 34.81C55.5077 35.47 54.9027 36.0933 54.2794 36.68C54.0227 36.9 53.7477 37.12 53.4544 37.34C53.161 37.56 52.8494 37.7617 52.5194 37.945C52.226 38.0917 51.896 38.275 51.5294 38.495C51.1994 38.715 50.8694 38.825 50.5394 38.825C50.1727 38.825 49.8244 38.6783 49.4944 38.385C49.1644 38.0917 48.9077 37.7617 48.7244 37.395C48.6144 37.175 48.5227 36.955 48.4494 36.735C48.376 36.4783 48.3394 36.2033 48.3394 35.91C48.376 35.47 48.486 35.0667 48.6694 34.7C48.8527 34.3333 49.036 33.9667 49.2194 33.6C49.696 32.7567 50.2094 31.9683 50.7594 31.235C51.346 30.465 51.9694 29.7317 52.6294 29.035C52.7394 28.8883 52.941 28.65 53.2344 28.32C53.5644 27.9533 53.876 27.6233 54.1694 27.33C54.4994 27 54.7194 26.835 54.8294 26.835C54.756 26.7617 54.756 26.725 54.8294 26.725C54.9394 26.615 55.1227 26.4317 55.3794 26.175C55.636 25.9183 55.8377 25.79 55.9844 25.79C56.021 25.7167 56.0944 25.6067 56.2044 25.46C56.3144 25.3133 56.4244 25.24 56.5344 25.24V25.295C56.571 25.2217 56.6077 25.1483 56.6444 25.075C56.7177 25.0017 56.791 24.965 56.8644 24.965C56.8644 24.8917 56.8827 24.855 56.9194 24.855L57.0294 24.69H57.1944C57.2677 24.5433 57.3777 24.47 57.5244 24.47L57.7444 24.195C57.9277 23.975 58.1477 23.7733 58.4044 23.59C58.661 23.37 58.8994 23.1867 59.1194 23.04L60.3844 21.72C61.0077 21.2067 61.6127 20.7667 62.1994 20.4L62.8044 20.015V19.96C62.9877 19.8867 63.1344 19.795 63.2444 19.685C63.391 19.5383 63.5744 19.465 63.7944 19.465C64.051 19.465 64.3444 19.5933 64.6744 19.85C65.0044 20.1067 65.316 20.4 65.6094 20.73C65.7194 20.5467 65.8477 20.3633 65.9944 20.18C66.141 19.9967 66.251 19.8683 66.3244 19.795C66.361 19.7583 66.4894 19.7583 66.7094 19.795C66.966 19.795 67.0944 19.7767 67.0944 19.74H67.2044C67.3877 19.85 67.681 19.9783 68.0844 20.125C68.5244 20.235 68.9277 20.4 69.2944 20.62C69.6977 20.8033 69.8994 21.0783 69.8994 21.445C69.8994 21.5917 69.8444 21.7567 69.7344 21.94C69.5877 22.16 69.386 22.3433 69.1294 22.49C68.9094 22.6 68.7077 22.7283 68.5244 22.875L68.0294 23.37C67.8827 23.5167 67.571 23.8467 67.0944 24.36C66.6177 24.8733 66.2877 25.1667 66.1044 25.24C66.1044 25.24 65.9027 25.4967 65.4994 26.01C65.1327 26.5233 64.6927 27.1283 64.1794 27.825C63.7027 28.485 63.2627 29.09 62.8594 29.64C62.456 30.19 62.236 30.5017 62.1994 30.575C61.8327 31.125 61.4844 31.6017 61.1544 32.005C60.8244 32.4083 60.5127 32.8667 60.2194 33.38C60.1827 33.5267 60.1094 33.655 59.9994 33.765C59.8894 33.875 59.7977 33.985 59.7244 34.095L59.5594 34.59C59.5227 34.7 59.3944 34.92 59.1744 35.25C58.991 35.58 58.8627 35.7633 58.7894 35.8C58.7527 36.0567 58.606 36.3683 58.3494 36.735C58.1294 37.065 58.0377 37.3033 58.0744 37.45L57.9644 37.285L57.9094 37.34C57.8727 37.4867 57.8177 37.7433 57.7444 38.11C57.7077 38.5133 57.5977 38.7333 57.4144 38.77V38.88C57.4144 39.0267 57.3777 39.1733 57.3044 39.32C57.2677 39.4667 57.231 39.6133 57.1944 39.76C57.1577 39.9067 57.1027 40.2367 57.0294 40.75C56.956 41.3 56.9194 41.7767 56.9194 42.18C56.9194 42.6933 56.9927 42.95 57.1394 42.95C57.4327 42.9867 57.781 42.8217 58.1844 42.455C58.6244 42.0883 58.9544 41.795 59.1744 41.575L59.5594 41.19C59.596 41.2267 59.596 41.2633 59.5594 41.3C59.5227 41.3733 59.376 41.5567 59.1194 41.85C58.8627 42.1433 58.7344 42.3267 58.7344 42.4C58.6244 42.4 58.5694 42.4183 58.5694 42.455L57.9644 43.115ZM50.9794 37.34C51.3094 37.3033 51.7127 37.065 52.1894 36.625C52.7027 36.185 53.0877 35.9467 53.3444 35.91C53.4544 35.69 53.6377 35.5067 53.8944 35.36C54.151 35.1767 54.3527 35.0117 54.4994 34.865L56.0944 33.325C56.8644 32.555 57.671 31.7483 58.5144 30.905C59.3577 30.025 60.146 29.1817 60.8794 28.375L61.9794 26.67C62.2727 26.23 62.676 25.6983 63.1894 25.075C63.7027 24.4517 64.1427 23.865 64.5094 23.315C64.5094 23.1683 64.5094 23.0217 64.5094 22.875C64.546 22.6917 64.6194 22.49 64.7294 22.27C64.8027 22.1967 64.8577 22.105 64.8944 21.995C64.931 21.885 64.9677 21.775 65.0044 21.665V21.61H64.9494C64.7294 21.83 64.4544 21.9767 64.1244 22.05C63.831 22.1233 63.556 22.2333 63.2994 22.38L62.7494 22.82C62.1994 23.1133 61.6494 23.425 61.0994 23.755C60.5494 24.085 60.0177 24.4517 59.5044 24.855C59.3577 24.855 59.2844 24.9283 59.2844 25.075C59.211 25.075 58.9727 25.2217 58.5694 25.515C58.2027 25.8083 57.836 26.1017 57.4694 26.395C57.1394 26.6517 56.9744 26.7983 56.9744 26.835C56.8277 26.9817 56.626 27.11 56.3694 27.22C56.1127 27.33 55.9844 27.5133 55.9844 27.77H55.6544V28.21H55.3794V28.265C55.3427 28.3383 55.2694 28.43 55.1594 28.54C55.086 28.65 54.9944 28.7233 54.8844 28.76C54.8477 28.7967 54.8294 28.7967 54.8294 28.76H54.7744C54.7377 28.87 54.6827 28.9433 54.6094 28.98C54.5727 28.98 54.5177 29.0167 54.4444 29.09L54.0044 29.75H53.9494L54.1694 30.19C54.096 30.19 53.931 30.2817 53.6744 30.465C53.4177 30.6483 53.2894 30.7583 53.2894 30.795H53.2344V31.07C52.9777 31.1067 52.8127 31.2167 52.7394 31.4C52.7027 31.5833 52.6294 31.7667 52.5194 31.95L51.9144 32.61L51.5844 33.49L51.1994 34.04C51.1627 34.0767 51.1077 34.15 51.0344 34.26C50.9977 34.37 50.9977 34.425 51.0344 34.425V34.48C51.1077 34.48 51.0894 34.535 50.9794 34.645C50.906 34.755 50.796 34.7917 50.6494 34.755C50.6127 34.9017 50.5027 35.1767 50.3194 35.58C50.136 35.9833 50.0444 36.35 50.0444 36.68C50.0444 37.23 50.356 37.45 50.9794 37.34ZM79.3271 18.75C79.3271 18.75 79.1255 18.7133 78.7221 18.64C78.3188 18.5667 77.8971 18.4017 77.4571 18.145C77.3471 18.035 77.1638 17.9067 76.9071 17.76C76.6871 17.6133 76.6505 17.4483 76.7971 17.265C76.8705 17.155 76.9621 17.1 77.0721 17.1C77.1821 16.9533 77.2921 16.825 77.4021 16.715C77.5488 16.605 77.6588 16.4767 77.7321 16.33C78.4288 15.45 79.1621 14.6433 79.9321 13.91C80.7388 13.14 81.5638 12.4067 82.4072 11.71C82.7005 11.4533 82.9755 11.1967 83.2321 10.94C83.4888 10.6833 83.7821 10.4817 84.1121 10.335C84.5155 10.1517 84.7721 10.115 84.8821 10.225C84.9921 10.335 85.0471 10.39 85.0471 10.39C85.0471 10.4267 85.0288 10.445 84.9921 10.445C84.9188 10.665 84.8455 10.8483 84.7721 10.995C84.6255 11.1783 84.4421 11.3617 84.2221 11.545C84.0021 11.6917 83.8555 11.875 83.7821 12.095C83.7821 12.205 83.7638 12.26 83.7271 12.26C83.5805 12.4067 83.3055 12.6633 82.9021 13.03C82.5355 13.3967 82.3521 13.6717 82.3521 13.855C82.2421 13.855 82.1871 13.8733 82.1871 13.91H82.1321C82.0955 14.1667 81.9855 14.3683 81.8021 14.515C81.6188 14.6617 81.4355 14.8267 81.2521 15.01C81.1055 15.1567 80.9955 15.34 80.9221 15.56C80.8488 15.7433 80.7571 15.9267 80.6471 16.11C80.5371 16.2567 80.4088 16.385 80.2621 16.495C80.1521 16.5683 80.0605 16.6783 79.9871 16.825C79.8405 17.0817 79.8038 17.375 79.8771 17.705C79.9505 17.9983 79.9505 18.2917 79.8771 18.585C79.8405 18.695 79.7305 18.7683 79.5471 18.805C79.4005 18.805 79.3271 18.7867 79.3271 18.75ZM64.5321 39.155C63.5788 38.7883 63.1571 38.055 63.2671 36.955L63.4871 36.515C63.6705 36.2217 63.8171 35.9283 63.9271 35.635C64.0371 35.3417 64.1655 35.0667 64.3121 34.81C65.0821 33.49 65.8521 32.1883 66.6221 30.905C67.4288 29.585 68.2721 28.3017 69.1521 27.055C69.1888 27.0183 69.2071 26.9817 69.2071 26.945C69.2438 26.8717 69.2805 26.835 69.3171 26.835V26.725C69.5005 26.5783 69.7571 26.2667 70.0871 25.79C70.4171 25.2767 70.7655 24.745 71.1321 24.195C71.5355 23.6083 71.8655 23.1683 72.1221 22.875C71.8655 23.0583 71.5905 23.26 71.2971 23.48C71.0405 23.7 70.8021 23.9567 70.5821 24.25C70.4721 24.3967 70.1971 24.7083 69.7571 25.185C69.3538 25.625 68.8955 26.1383 68.3821 26.725C67.8688 27.275 67.4105 27.7883 67.0071 28.265C66.6038 28.705 66.3471 28.9983 66.2371 29.145C65.7971 29.6217 65.4855 29.86 65.3021 29.86C65.2288 29.86 65.1921 29.8233 65.1921 29.75C65.1921 29.6033 65.3205 29.365 65.5771 29.035L67.3371 27.055C67.5938 26.7617 67.8321 26.505 68.0521 26.285C68.3088 26.0283 68.5471 25.7717 68.7671 25.515C68.9505 25.3317 69.1155 25.13 69.2621 24.91C69.4455 24.69 69.6288 24.4883 69.8121 24.305L70.6921 23.37C70.8755 23.1867 71.0405 22.985 71.1871 22.765C71.3705 22.5083 71.5538 22.2883 71.7371 22.105C72.8371 20.9683 73.6071 20.2533 74.0471 19.96C74.4871 19.6667 74.8355 19.6117 75.0921 19.795C75.1655 19.7217 75.2571 19.685 75.3671 19.685C75.4771 19.685 75.5871 19.7217 75.6971 19.795C75.8071 19.8317 75.8988 19.8683 75.9721 19.905C76.1188 19.9783 76.3388 20.125 76.6321 20.345C76.9255 20.5283 77.1638 20.7483 77.3471 21.005C77.5305 21.225 77.5121 21.445 77.2921 21.665C77.0721 21.9217 76.8155 22.105 76.5221 22.215C76.2288 22.325 75.9538 22.5083 75.6971 22.765C75.5138 22.9117 75.3121 23.0767 75.0921 23.26C74.9088 23.4433 74.7621 23.645 74.6521 23.865L74.5971 23.92C74.6338 24.3233 74.3771 24.745 73.8271 25.185C73.2771 25.5883 72.8555 25.9367 72.5621 26.23C72.4521 26.34 72.3605 26.5233 72.2871 26.78H72.2321L71.9571 26.835C71.8838 27.0917 71.7188 27.3117 71.4621 27.495C71.2421 27.6417 71.1321 27.8617 71.1321 28.155C70.9121 28.2283 70.7105 28.4667 70.5271 28.87C70.3805 29.2733 70.2155 29.475 70.0321 29.475V29.64C70.0321 29.8233 69.9221 30.0433 69.7021 30.3C69.4821 30.52 69.2988 30.63 69.1521 30.63C69.1521 30.6667 69.1521 30.7217 69.1521 30.795C69.1521 30.8683 69.1338 30.905 69.0971 30.905C68.9505 31.015 68.8771 31.2167 68.8771 31.51H68.7121V31.565L68.8221 31.84L68.4921 31.895C68.4555 32.0417 68.3271 32.2983 68.1071 32.665C67.8871 32.995 67.6855 33.16 67.5021 33.16V33.215H67.4471L67.7221 33.49H67.6671V33.545H67.6121C67.4655 33.4717 67.3555 33.435 67.2821 33.435V33.49C67.3555 33.6367 67.3921 33.7467 67.3921 33.82C67.3921 34.04 67.2638 34.15 67.0071 34.15C67.0071 34.1867 67.0071 34.205 67.0071 34.205L67.1171 34.315V34.37C66.8605 34.4067 66.7321 34.6083 66.7321 34.975H66.6221L66.5121 34.92C66.4388 35.1767 66.3471 35.4517 66.2371 35.745C66.1638 36.0017 66.0721 36.2583 65.9621 36.515C65.9255 36.6983 65.8521 36.8817 65.7421 37.065C65.6688 37.2117 65.6321 37.395 65.6321 37.615H65.6871V37.56C66.0905 37.2667 66.5671 36.9733 67.1171 36.68C67.6671 36.35 68.1255 36.0017 68.4921 35.635L72.7821 31.565L74.4321 29.97C74.5055 29.8967 74.6521 29.7683 74.8721 29.585C75.0921 29.4017 75.2755 29.2733 75.4221 29.2C75.4955 29.1633 75.6055 29.1817 75.7521 29.255C75.8988 29.2917 75.9355 29.3467 75.8621 29.42L74.3221 30.74C73.8455 31.1067 73.5155 31.4733 73.3321 31.84C73.1488 32.2067 72.8188 32.5917 72.3421 32.995C72.0121 33.2883 71.7005 33.6 71.4071 33.93C71.1138 34.26 70.8021 34.5717 70.4721 34.865L68.9871 36.185C68.6571 36.4783 68.3271 36.8083 67.9971 37.175C67.7038 37.5417 67.3738 37.8717 67.0071 38.165L66.2921 38.77C66.1455 38.88 65.9438 38.99 65.6871 39.1C65.4671 39.21 65.2471 39.265 65.0271 39.265C64.9171 39.265 64.7521 39.2283 64.5321 39.155ZM76.0821 28.98C76.0088 28.98 75.9721 28.9067 75.9721 28.76C75.9721 28.6133 76.0088 28.54 76.0821 28.54C76.1555 28.54 76.2288 28.5217 76.3021 28.485C76.4121 28.4117 76.4855 28.375 76.5221 28.375C76.5588 28.375 76.5771 28.3933 76.5771 28.43C76.5771 28.5033 76.5038 28.6133 76.3571 28.76C76.2471 28.9067 76.1555 28.98 76.0821 28.98ZM72.1011 39.87C71.8078 39.65 71.6611 39.3017 71.6611 38.825C71.6611 38.605 71.6794 38.44 71.7161 38.33C71.7894 38.1467 71.8628 38 71.9361 37.89C71.9728 37.7433 72.0094 37.5967 72.0461 37.45L72.2111 37.175L72.7061 36.185C72.8894 35.7817 73.1278 35.3783 73.4211 34.975C73.7144 34.5717 73.9894 34.1867 74.2461 33.82C74.2461 33.7833 74.2828 33.7283 74.3561 33.655C74.4294 33.545 74.4661 33.49 74.4661 33.49L75.2911 32.28C75.4378 32.0967 75.5844 31.9133 75.7311 31.73C75.9144 31.5467 76.0244 31.345 76.0611 31.125L76.1161 31.07C76.2261 30.9967 76.3544 30.85 76.5011 30.63C76.6844 30.3733 76.8128 30.1717 76.8861 30.025C77.2894 29.5117 77.6744 28.9983 78.0411 28.485C78.4444 27.9717 78.8294 27.4583 79.1961 26.945L79.3061 26.78L76.3361 29.2C76.0061 29.4567 75.6761 29.7683 75.3461 30.135C75.0161 30.465 74.6678 30.795 74.3011 31.125C74.0444 31.345 73.8611 31.455 73.7511 31.455C73.6778 31.455 73.6411 31.4 73.6411 31.29C73.6411 31.07 73.8061 30.8317 74.1361 30.575C74.3928 30.3917 74.5944 30.2083 74.7411 30.025C74.8878 29.805 75.0894 29.585 75.3461 29.365C75.5294 29.2183 75.7494 28.9617 76.0061 28.595C76.2994 28.2283 76.5378 27.9717 76.7211 27.825C76.9778 27.6417 77.2894 27.33 77.6561 26.89C78.0594 26.4133 78.3711 26.065 78.5911 25.845C79.5444 24.965 80.1861 24.2867 80.5161 23.81C80.8461 23.3333 81.1944 22.9117 81.5611 22.545L83.4861 20.345C83.5961 20.235 83.7244 20.07 83.8711 19.85L84.3111 19.575C84.5311 19.6117 84.8244 19.7767 85.1911 20.07C85.5944 20.3633 85.6861 20.73 85.4661 21.17C85.4661 21.2067 85.3194 21.3717 85.0261 21.665C84.7328 21.9217 84.4394 22.1967 84.1461 22.49C83.8528 22.7833 83.6694 22.9483 83.5961 22.985C83.5228 22.985 83.4861 23.0033 83.4861 23.04C82.8628 23.7733 82.4411 24.2133 82.2211 24.36C82.0011 24.5067 81.8728 24.5983 81.8361 24.635C81.8361 24.6717 81.7628 24.91 81.6161 25.35C81.5061 25.4233 81.3961 25.5333 81.2861 25.68C81.2128 25.79 81.1394 25.9183 81.0661 26.065H80.9011C80.8644 26.2117 80.7911 26.34 80.6811 26.45C80.6078 26.5233 80.5344 26.615 80.4611 26.725L80.1861 27.165L79.7461 27.605L79.3611 28.155C79.2878 28.265 79.2144 28.375 79.1411 28.485C79.1044 28.595 79.0494 28.705 78.9761 28.815C78.8294 28.9983 78.6644 29.2 78.4811 29.42C78.3344 29.6033 78.1878 29.805 78.0411 30.025C77.9311 30.1717 77.8028 30.3 77.6561 30.41C77.5094 30.4833 77.3994 30.63 77.3261 30.85C77.2894 30.9233 77.2344 31.0883 77.1611 31.345C77.0878 31.565 77.0144 31.675 76.9411 31.675C76.9411 31.9683 76.8311 32.1883 76.6111 32.335C76.4278 32.4817 76.2444 32.665 76.0611 32.885L75.5661 33.82L75.3461 34.26L74.7961 34.975L74.3011 35.91C74.1178 36.2767 73.8794 36.6433 73.5861 37.01C73.2561 37.3767 73.0544 37.7617 72.9811 38.165C72.9444 38.165 72.8711 38.3117 72.7611 38.605C72.6144 38.8983 72.4861 39.1733 72.3761 39.43C72.2294 39.7233 72.1378 39.87 72.1011 39.87ZM84.5861 40.42C84.4394 40.4567 84.2194 40.4933 83.9261 40.53C83.6328 40.5667 83.3211 40.585 82.9911 40.585C82.6244 40.585 82.2578 40.5483 81.8911 40.475C81.5611 40.4017 81.3228 40.2917 81.1761 40.145C81.1028 39.9983 81.0661 39.9067 81.0661 39.87C81.1028 39.8333 81.0844 39.7417 81.0111 39.595C80.8644 39.375 80.7728 39.3017 80.7361 39.375C80.7361 39.4483 80.6994 39.375 80.6261 39.155C80.5894 39.045 80.5711 38.8433 80.5711 38.55C80.5711 38.11 80.5894 37.6333 80.6261 37.12C80.6994 36.57 80.7361 36.2033 80.7361 36.02C80.7361 35.5433 80.7911 35.1033 80.9011 34.7C81.0478 34.26 81.1761 33.8383 81.2861 33.435C81.4694 32.665 81.7261 31.9317 82.0561 31.235C82.3861 30.5383 82.7344 29.86 83.1011 29.2C83.3944 28.6867 83.7061 28.1733 84.0361 27.66C84.3661 27.11 84.7328 26.5967 85.1361 26.12L85.2461 25.9C85.0628 25.9367 84.8978 26.0467 84.7511 26.23C84.6044 26.3767 84.4761 26.5233 84.3661 26.67C84.2561 26.8167 84.1094 26.9817 83.9261 27.165C83.7428 27.3483 83.5594 27.5133 83.3761 27.66C82.0561 28.87 80.6811 30.2633 79.2511 31.84C77.8578 33.38 76.5744 34.7733 75.4011 36.02C74.5211 36.9 73.9711 37.34 73.7511 37.34C73.6044 37.34 73.6778 37.1383 73.9711 36.735C74.2278 36.3317 74.6678 35.8917 75.2911 35.415C75.2911 35.415 75.3828 35.305 75.5661 35.085C75.7861 34.8283 75.8961 34.6817 75.8961 34.645C76.1161 34.535 76.2628 34.3883 76.3361 34.205C76.4461 33.985 76.6294 33.8017 76.8861 33.655L77.7111 32.775L78.1511 32.115C78.4811 31.6017 78.8661 31.1433 79.3061 30.74C79.7828 30.3367 80.2228 29.8967 80.6261 29.42C80.6628 29.3833 80.8094 29.2367 81.0661 28.98C81.3594 28.6867 81.5244 28.54 81.5611 28.54C81.6344 28.2833 81.8178 28.045 82.1111 27.825C82.4411 27.5683 82.6794 27.3667 82.8261 27.22L84.1461 25.845L84.2011 25.79L84.3111 25.845L84.2561 25.79C84.3294 25.6067 84.4761 25.4417 84.6961 25.295C84.9528 25.1117 85.1544 24.9467 85.3011 24.8C85.4844 24.6167 85.7961 24.2683 86.2361 23.755C86.6761 23.205 87.1894 22.93 87.7761 22.93C88.0694 22.93 88.3444 23.0033 88.6011 23.15C88.7111 23.1867 88.8944 23.3333 89.1511 23.59C89.4444 23.8467 89.6828 24.085 89.8661 24.305C90.0861 24.525 90.1411 24.6717 90.0311 24.745C89.8844 24.8917 89.7744 24.9833 89.7011 25.02C89.5544 25.13 89.2978 25.35 88.9311 25.68C88.6011 26.01 88.3444 26.1567 88.1611 26.12C88.1611 26.12 88.0694 26.2483 87.8861 26.505C87.7394 26.7617 87.2994 27.3483 86.5661 28.265C86.4928 28.1917 86.3094 28.3933 86.0161 28.87C85.7594 29.3467 85.5761 29.6767 85.4661 29.86C85.2828 30.2633 85.0628 30.6117 84.8061 30.905C84.5861 31.1617 84.3661 31.4733 84.1461 31.84V31.95C84.1461 32.06 84.1094 32.1517 84.0361 32.225C83.9628 32.2617 83.8894 32.3167 83.8161 32.39V32.775C83.8161 32.885 83.7244 33.1233 83.5411 33.49C83.3944 33.82 83.2661 34.1867 83.1561 34.59C83.2661 34.9933 83.2478 35.3233 83.1011 35.58C82.9544 35.8367 82.7894 36.0933 82.6061 36.35C82.4594 36.57 82.4044 36.8817 82.4411 37.285C82.4411 37.3583 82.4228 37.4867 82.3861 37.67C82.3861 37.8533 82.3861 38.0733 82.3861 38.33C82.3861 38.6233 82.4228 38.935 82.4961 39.265C82.5694 39.595 82.6978 39.8517 82.8811 40.035C82.9911 40.145 83.1378 40.2 83.3211 40.2C83.6878 40.2 84.0911 40.0717 84.5311 39.815C84.9711 39.595 85.2644 39.4483 85.4111 39.375L85.7411 39.155C85.7411 39.1917 85.7411 39.21 85.7411 39.21C85.7044 39.2833 85.5944 39.4117 85.4111 39.595C85.2278 39.815 85.1544 39.9617 85.1911 40.035C85.0811 40.035 85.0261 40.035 85.0261 40.035L84.5861 40.42ZM95.1323 43.115C94.949 43.2617 94.6923 43.335 94.3623 43.335C93.8857 43.335 93.519 43.1517 93.2623 42.785L92.9323 42.07C92.859 41.85 92.749 41.6483 92.6023 41.465C92.4923 41.2817 92.4373 41.0617 92.4373 40.805C92.4373 40.5117 92.474 40.2183 92.5473 39.925C92.6207 39.6683 92.6757 39.4117 92.7123 39.155C92.8223 38.6417 92.9873 38.1283 93.2073 37.615C93.4273 37.065 93.629 36.5517 93.8123 36.075C94.179 35.1583 94.6007 34.2783 95.0773 33.435C95.554 32.555 96.0307 31.675 96.5073 30.795L97.1673 29.64L96.8923 30.025C96.5623 30.5017 96.2507 30.96 95.9573 31.4C95.664 31.84 95.3523 32.28 95.0223 32.72C94.4723 33.4167 93.8857 34.1133 93.2623 34.81C92.6757 35.47 92.0707 36.0933 91.4473 36.68C91.1907 36.9 90.9157 37.12 90.6223 37.34C90.329 37.56 90.0173 37.7617 89.6873 37.945C89.394 38.0917 89.064 38.275 88.6973 38.495C88.3673 38.715 88.0373 38.825 87.7073 38.825C87.3407 38.825 86.9923 38.6783 86.6623 38.385C86.3323 38.0917 86.0757 37.7617 85.8923 37.395C85.7823 37.175 85.6907 36.955 85.6173 36.735C85.544 36.4783 85.5073 36.2033 85.5073 35.91C85.544 35.47 85.654 35.0667 85.8373 34.7C86.0207 34.3333 86.204 33.9667 86.3873 33.6C86.864 32.7567 87.3773 31.9683 87.9273 31.235C88.514 30.465 89.1373 29.7317 89.7973 29.035C89.9073 28.8883 90.109 28.65 90.4023 28.32C90.7323 27.9533 91.044 27.6233 91.3373 27.33C91.6673 27 91.8873 26.835 91.9973 26.835C91.924 26.7617 91.924 26.725 91.9973 26.725C92.1073 26.615 92.2907 26.4317 92.5473 26.175C92.804 25.9183 93.0057 25.79 93.1523 25.79C93.189 25.7167 93.2623 25.6067 93.3723 25.46C93.4823 25.3133 93.5923 25.24 93.7023 25.24V25.295C93.739 25.2217 93.7757 25.1483 93.8123 25.075C93.8857 25.0017 93.959 24.965 94.0323 24.965C94.0323 24.8917 94.0507 24.855 94.0873 24.855L94.1973 24.69H94.3623C94.4357 24.5433 94.5457 24.47 94.6923 24.47L94.9123 24.195C95.0957 23.975 95.3157 23.7733 95.5723 23.59C95.829 23.37 96.0673 23.1867 96.2873 23.04L97.5523 21.72C98.1757 21.2067 98.7807 20.7667 99.3673 20.4L99.9723 20.015V19.96C100.156 19.8867 100.302 19.795 100.412 19.685C100.559 19.5383 100.742 19.465 100.962 19.465C101.219 19.465 101.512 19.5933 101.842 19.85C102.172 20.1067 102.484 20.4 102.777 20.73C102.887 20.5467 103.016 20.3633 103.162 20.18C103.309 19.9967 103.419 19.8683 103.492 19.795C103.529 19.7583 103.657 19.7583 103.877 19.795C104.134 19.795 104.262 19.7767 104.262 19.74H104.372C104.556 19.85 104.849 19.9783 105.252 20.125C105.692 20.235 106.096 20.4 106.462 20.62C106.866 20.8033 107.067 21.0783 107.067 21.445C107.067 21.5917 107.012 21.7567 106.902 21.94C106.756 22.16 106.554 22.3433 106.297 22.49C106.077 22.6 105.876 22.7283 105.692 22.875L105.197 23.37C105.051 23.5167 104.739 23.8467 104.262 24.36C103.786 24.8733 103.456 25.1667 103.272 25.24C103.272 25.24 103.071 25.4967 102.667 26.01C102.301 26.5233 101.861 27.1283 101.347 27.825C100.871 28.485 100.431 29.09 100.027 29.64C99.624 30.19 99.404 30.5017 99.3673 30.575C99.0007 31.125 98.6523 31.6017 98.3223 32.005C97.9923 32.4083 97.6807 32.8667 97.3873 33.38C97.3507 33.5267 97.2773 33.655 97.1673 33.765C97.0573 33.875 96.9657 33.985 96.8923 34.095L96.7273 34.59C96.6907 34.7 96.5623 34.92 96.3423 35.25C96.159 35.58 96.0307 35.7633 95.9573 35.8C95.9207 36.0567 95.774 36.3683 95.5173 36.735C95.2973 37.065 95.2057 37.3033 95.2423 37.45L95.1323 37.285L95.0773 37.34C95.0407 37.4867 94.9857 37.7433 94.9123 38.11C94.8757 38.5133 94.7657 38.7333 94.5823 38.77V38.88C94.5823 39.0267 94.5457 39.1733 94.4723 39.32C94.4357 39.4667 94.399 39.6133 94.3623 39.76C94.3257 39.9067 94.2707 40.2367 94.1973 40.75C94.124 41.3 94.0873 41.7767 94.0873 42.18C94.0873 42.6933 94.1607 42.95 94.3073 42.95C94.6007 42.9867 94.949 42.8217 95.3523 42.455C95.7923 42.0883 96.1223 41.795 96.3423 41.575L96.7273 41.19C96.764 41.2267 96.764 41.2633 96.7273 41.3C96.6907 41.3733 96.544 41.5567 96.2873 41.85C96.0307 42.1433 95.9023 42.3267 95.9023 42.4C95.7923 42.4 95.7373 42.4183 95.7373 42.455L95.1323 43.115ZM88.1473 37.34C88.4773 37.3033 88.8807 37.065 89.3573 36.625C89.8707 36.185 90.2557 35.9467 90.5123 35.91C90.6223 35.69 90.8057 35.5067 91.0623 35.36C91.319 35.1767 91.5207 35.0117 91.6673 34.865L93.2623 33.325C94.0323 32.555 94.839 31.7483 95.6823 30.905C96.5257 30.025 97.314 29.1817 98.0473 28.375L99.1473 26.67C99.4407 26.23 99.844 25.6983 100.357 25.075C100.871 24.4517 101.311 23.865 101.677 23.315C101.677 23.1683 101.677 23.0217 101.677 22.875C101.714 22.6917 101.787 22.49 101.897 22.27C101.971 22.1967 102.026 22.105 102.062 21.995C102.099 21.885 102.136 21.775 102.172 21.665V21.61H102.117C101.897 21.83 101.622 21.9767 101.292 22.05C100.999 22.1233 100.724 22.2333 100.467 22.38L99.9173 22.82C99.3673 23.1133 98.8173 23.425 98.2673 23.755C97.7173 24.085 97.1857 24.4517 96.6723 24.855C96.5257 24.855 96.4523 24.9283 96.4523 25.075C96.379 25.075 96.1407 25.2217 95.7373 25.515C95.3707 25.8083 95.004 26.1017 94.6373 26.395C94.3073 26.6517 94.1423 26.7983 94.1423 26.835C93.9957 26.9817 93.794 27.11 93.5373 27.22C93.2807 27.33 93.1523 27.5133 93.1523 27.77H92.8223V28.21H92.5473V28.265C92.5107 28.3383 92.4373 28.43 92.3273 28.54C92.254 28.65 92.1623 28.7233 92.0523 28.76C92.0157 28.7967 91.9973 28.7967 91.9973 28.76H91.9423C91.9057 28.87 91.8507 28.9433 91.7773 28.98C91.7407 28.98 91.6857 29.0167 91.6123 29.09L91.1723 29.75H91.1173L91.3373 30.19C91.264 30.19 91.099 30.2817 90.8423 30.465C90.5857 30.6483 90.4573 30.7583 90.4573 30.795H90.4023V31.07C90.1457 31.1067 89.9807 31.2167 89.9073 31.4C89.8707 31.5833 89.7973 31.7667 89.6873 31.95L89.0823 32.61L88.7523 33.49L88.3673 34.04C88.3307 34.0767 88.2757 34.15 88.2023 34.26C88.1657 34.37 88.1657 34.425 88.2023 34.425V34.48C88.2757 34.48 88.2573 34.535 88.1473 34.645C88.074 34.755 87.964 34.7917 87.8173 34.755C87.7807 34.9017 87.6707 35.1767 87.4873 35.58C87.304 35.9833 87.2123 36.35 87.2123 36.68C87.2123 37.23 87.524 37.45 88.1473 37.34ZM106.284 42.51C106.028 42.51 105.844 42.455 105.734 42.345C105.624 42.2717 105.478 42.1433 105.294 41.96C105.038 41.6667 104.708 41.3183 104.304 40.915C103.938 40.5117 103.754 40.1083 103.754 39.705C103.754 39.3017 104.011 38.8067 104.524 38.22C105.074 37.6333 105.514 37.23 105.844 37.01C105.954 36.79 106.156 36.5517 106.449 36.295C106.743 36.0017 107.018 35.8367 107.274 35.8V35.745C107.458 35.5617 107.623 35.3783 107.769 35.195C107.953 34.975 108.154 34.8283 108.374 34.755L108.539 34.48C108.613 34.4433 108.686 34.4067 108.759 34.37C108.833 34.2967 108.906 34.2417 108.979 34.205C109.089 34.095 109.181 34.04 109.254 34.04L109.474 33.71L109.584 33.765C109.621 33.6917 109.731 33.6 109.914 33.49C110.134 33.3433 110.281 33.2517 110.354 33.215H110.409V33.27C110.079 33.5633 109.603 34.0217 108.979 34.645C108.356 35.2683 107.714 35.9467 107.054 36.68C106.394 37.4133 105.826 38.0917 105.349 38.715C104.909 39.375 104.689 39.8517 104.689 40.145C104.689 40.365 104.763 40.53 104.909 40.64C105.093 40.75 105.276 40.805 105.459 40.805C105.753 40.805 106.009 40.695 106.229 40.475C106.486 40.2917 106.706 40.1817 106.889 40.145L106.944 40.035C107.091 40.035 107.201 39.9617 107.274 39.815C107.384 39.705 107.513 39.6317 107.659 39.595C107.696 39.5217 107.934 39.3017 108.374 38.935C108.851 38.5683 109.346 38.1833 109.859 37.78C110.373 37.3767 110.703 37.1017 110.849 36.955C111.033 36.7717 111.528 36.2767 112.334 35.47C113.141 34.6633 114.058 33.6183 115.084 32.335C115.598 31.7117 116.276 30.74 117.119 29.42C117.999 28.1 118.861 26.6517 119.704 25.075C120.548 23.4617 121.153 21.9217 121.519 20.455C121.556 20.2717 121.593 20.0883 121.629 19.905C121.666 19.685 121.684 19.5017 121.684 19.355C121.684 19.0983 121.666 18.8967 121.629 18.75C121.593 18.6033 121.428 18.53 121.134 18.53C120.401 18.53 119.723 18.7867 119.099 19.3C118.476 19.7767 117.963 20.2533 117.559 20.73C117.156 21.2067 116.881 21.4633 116.734 21.5C116.734 21.5 116.698 21.5367 116.624 21.61V21.665L116.569 21.61C116.203 21.9767 115.873 22.3983 115.579 22.875C115.286 23.315 114.956 23.7367 114.589 24.14C114.479 24.2867 114.351 24.415 114.204 24.525C114.058 24.5983 113.929 24.69 113.819 24.8C113.526 25.13 113.251 25.4783 112.994 25.845C112.738 26.175 112.463 26.5233 112.169 26.89L112.059 27C112.023 27.22 111.931 27.4217 111.784 27.605C111.638 27.7517 111.509 27.9167 111.399 28.1C111.069 28.5033 110.739 28.925 110.409 29.365C110.079 29.805 109.731 30.2267 109.364 30.63C108.961 31.1067 108.594 31.62 108.264 32.17C107.934 32.72 107.568 33.2517 107.164 33.765C107.018 33.9483 106.834 34.3333 106.614 34.92C106.431 35.5067 106.211 35.8 105.954 35.8C105.624 35.8 105.239 35.58 104.799 35.14C104.396 34.6633 104.194 34.2417 104.194 33.875C104.194 33.6917 104.231 33.5083 104.304 33.325C104.378 33.105 104.414 32.9033 104.414 32.72L104.469 32.39C105.386 30.3367 106.376 28.43 107.439 26.67C107.586 26.4867 107.751 26.285 107.934 26.065C108.118 25.845 108.209 25.6067 108.209 25.35C108.393 25.2767 108.558 25.0933 108.704 24.8C108.888 24.47 109.016 24.2317 109.089 24.085C109.383 23.645 109.676 23.1867 109.969 22.71C110.263 22.2333 110.556 21.7933 110.849 21.39C111.033 21.1333 111.326 20.7483 111.729 20.235C112.133 19.685 112.573 19.1167 113.049 18.53C113.526 17.9067 113.929 17.3383 114.259 16.825C114.626 16.3117 114.846 15.945 114.919 15.725C114.956 15.725 114.956 15.7067 114.919 15.67C114.773 15.7067 114.516 15.9267 114.149 16.33C113.819 16.7333 113.489 17.155 113.159 17.595C112.829 17.9983 112.573 18.2917 112.389 18.475L111.564 19.3C111.491 19.41 111.344 19.5567 111.124 19.74C110.904 19.9233 110.648 20.1617 110.354 20.455C110.061 20.7483 109.621 21.225 109.034 21.885C108.448 22.5083 107.861 23.15 107.274 23.81C106.688 24.47 106.229 25.0017 105.899 25.405C105.203 26.2117 104.488 27.0183 103.754 27.825C103.021 28.6317 102.288 29.4383 101.554 30.245C101.481 30.355 101.334 30.52 101.114 30.74C100.931 30.9233 100.766 31.015 100.619 31.015C100.583 31.015 100.564 30.9783 100.564 30.905C100.564 30.7583 100.711 30.5017 101.004 30.135C101.334 29.7317 101.701 29.2917 102.104 28.815C102.544 28.3383 102.948 27.8983 103.314 27.495C103.718 27.0917 103.993 26.8167 104.139 26.67L105.129 25.46C105.276 25.2767 105.423 25.1117 105.569 24.965C105.753 24.8183 105.918 24.6717 106.064 24.525C106.248 24.305 106.413 24.085 106.559 23.865C106.706 23.645 106.871 23.4433 107.054 23.26C108.411 21.7567 109.859 20.1617 111.399 18.475C112.976 16.7883 114.534 15.0833 116.074 13.36C117.614 11.6 119.008 9.93167 120.254 8.355C120.438 8.135 120.603 7.915 120.749 7.695C120.896 7.43833 121.043 7.18167 121.189 6.925L124.324 2.745C124.618 2.415 124.893 2.10333 125.149 1.81C125.406 1.48 125.644 1.15 125.864 0.819997L126.414 0.544997C126.781 0.581665 127.276 0.765 127.899 1.095C128.559 1.38833 128.889 1.73666 128.889 2.14C128.889 2.28667 128.706 2.54333 128.339 2.91C128.009 3.24 127.643 3.57 127.239 3.9C126.873 4.23 126.616 4.46833 126.469 4.615C126.286 4.76166 126.121 4.96333 125.974 5.22C125.828 5.47666 125.663 5.69666 125.479 5.88C125.333 6.02666 125.039 6.30166 124.599 6.705C124.196 7.07167 123.811 7.43833 123.444 7.805C123.078 8.17166 122.894 8.42833 122.894 8.575H122.729C122.253 9.27166 121.721 9.91333 121.134 10.5C120.548 11.0867 119.979 11.6917 119.429 12.315C119.209 12.5717 119.008 12.865 118.824 13.195C118.678 13.4883 118.476 13.7633 118.219 14.02L117.119 15.065L116.789 15.725C116.643 15.8717 116.404 16.1467 116.074 16.55C115.781 16.9167 115.506 17.3017 115.249 17.705C114.993 18.1083 114.846 18.42 114.809 18.64C114.663 18.7133 114.534 18.8233 114.424 18.97C114.351 19.1167 114.278 19.2633 114.204 19.41L114.149 19.465H113.984C113.948 19.6117 113.746 19.9233 113.379 20.4C113.049 20.84 112.829 21.1333 112.719 21.28C112.573 21.5 112.444 21.7383 112.334 21.995C112.261 22.215 112.133 22.435 111.949 22.655L110.904 24.03C110.794 24.2133 110.648 24.3783 110.464 24.525C110.281 24.635 110.189 24.8183 110.189 25.075C110.153 25.1483 110.098 25.3133 110.024 25.57C109.988 25.8267 109.933 25.9733 109.859 26.01C109.896 26.0467 109.914 26.12 109.914 26.23C109.914 26.4867 109.786 26.7067 109.529 26.89C109.273 27.0367 109.089 27.22 108.979 27.44C108.723 27.9167 108.503 28.4483 108.319 29.035C108.246 29.145 108.136 29.2733 107.989 29.42C107.879 29.5667 107.788 29.695 107.714 29.805C107.641 29.9517 107.568 30.135 107.494 30.355C107.458 30.575 107.403 30.7767 107.329 30.96C107.183 31.3633 106.944 31.7483 106.614 32.115C106.284 32.445 106.119 32.9033 106.119 33.49C106.339 33.3067 106.541 33.105 106.724 32.885L110.409 27.935C110.519 27.825 110.666 27.6783 110.849 27.495C111.069 27.3117 111.179 27.1467 111.179 27C111.289 26.8533 111.344 26.78 111.344 26.78C111.381 26.78 111.473 26.7067 111.619 26.56C111.656 26.45 111.821 26.2117 112.114 25.845C112.408 25.4783 112.738 25.075 113.104 24.635C113.471 24.1583 113.801 23.755 114.094 23.425C114.424 23.0583 114.626 22.875 114.699 22.875C114.846 22.5817 115.029 22.325 115.249 22.105C115.506 21.885 115.744 21.665 115.964 21.445C116.111 21.2983 116.423 20.9683 116.899 20.455C117.376 19.905 117.853 19.3917 118.329 18.915C118.806 18.4017 119.081 18.145 119.154 18.145C119.264 18.0717 119.484 17.9067 119.814 17.65C120.144 17.3567 120.383 17.21 120.529 17.21C120.859 17.21 121.079 17.32 121.189 17.54C121.336 17.7233 121.464 17.8333 121.574 17.87C121.611 18.1267 121.703 18.31 121.849 18.42C121.996 18.53 122.143 18.6767 122.289 18.86C122.473 19.08 122.638 19.3917 122.784 19.795C122.968 20.1983 123.059 20.5467 123.059 20.84C123.059 21.2067 123.096 21.5 123.169 21.72C123.243 21.9033 123.279 22.1233 123.279 22.38C123.279 22.5267 123.224 22.7467 123.114 23.04C123.078 23.1867 123.023 23.3333 122.949 23.48C122.876 23.59 122.821 23.7183 122.784 23.865H122.729C122.766 23.7183 122.784 23.5717 122.784 23.425C122.784 23.315 122.748 23.26 122.674 23.26C122.601 23.26 122.491 23.3517 122.344 23.535C122.234 23.7183 122.161 23.8467 122.124 23.92L122.344 24.305H122.399L122.509 24.03V24.25C122.509 24.47 122.436 24.6717 122.289 24.855C122.179 25.0017 122.143 25.185 122.179 25.405C121.996 25.5517 121.868 25.7717 121.794 26.065C121.758 26.3217 121.666 26.5417 121.519 26.725C121.483 26.7983 121.428 26.8717 121.354 26.945C121.281 26.9817 121.208 27.0367 121.134 27.11C121.098 27.22 121.061 27.3483 121.024 27.495C120.988 27.6417 120.933 27.77 120.859 27.88C120.786 27.9533 120.694 28.0083 120.584 28.045C120.474 28.0817 120.419 28.1917 120.419 28.375L120.474 28.32V28.485C120.181 28.9617 119.759 29.6033 119.209 30.41C118.696 31.2167 118.274 31.84 117.944 32.28L116.404 34.26C116.038 34.7 115.689 35.1583 115.359 35.635C115.066 36.075 114.718 36.4967 114.314 36.9C113.288 37.89 112.316 38.7517 111.399 39.485C110.483 40.255 109.383 41.0067 108.099 41.74C107.879 41.85 107.568 41.9967 107.164 42.18C106.798 42.4 106.504 42.51 106.284 42.51Z" fill="#EEEEEE"/>
</svg>
